<?xml version="1.0" encoding="UTF-8" standalone="no"?>
<svg
   xmlns:dc="http://purl.org/dc/elements/1.1/"
   xmlns:cc="http://creativecommons.org/ns#"
   xmlns:rdf="http://www.w3.org/1999/02/22-rdf-syntax-ns#"
   xmlns:svg="http://www.w3.org/2000/svg"
   xmlns="http://www.w3.org/2000/svg"
   xmlns:sodipodi="http://sodipodi.sourceforge.net/DTD/sodipodi-0.dtd"
   xmlns:inkscape="http://www.inkscape.org/namespaces/inkscape"
   version="1.1"
   id="svg2"
   width="395"
   height="196"
   viewBox="0 0 395 196"
   sodipodi:docname="bg-logo.svg"
   inkscape:version="1.0.1 (0767f8302a, 2020-10-17)">
  <metadata
     id="metadata8">
    <rdf:RDF>
      <cc:Work
         rdf:about="">
        <dc:format>image/svg+xml</dc:format>
        <dc:type
           rdf:resource="http://purl.org/dc/dcmitype/StillImage" />
        <dc:title></dc:title>
      </cc:Work>
    </rdf:RDF>
  </metadata>
  <defs
     id="defs6" />
  <sodipodi:namedview
     pagecolor="#ffffff"
     bordercolor="#666666"
     borderopacity="1"
     objecttolerance="10"
     gridtolerance="10"
     guidetolerance="10"
     inkscape:pageopacity="0"
     inkscape:pageshadow="2"
     inkscape:window-width="1366"
     inkscape:window-height="704"
     id="namedview4"
     showgrid="false"
     inkscape:zoom="2.0130897"
     inkscape:cx="238.13227"
     inkscape:cy="102.21934"
     inkscape:window-x="0"
     inkscape:window-y="27"
     inkscape:window-maximized="1"
     inkscape:current-layer="g10" />
  <g
     inkscape:groupmode="layer"
     inkscape:label="Image"
     id="g10">
    <path
       style="fill:#000000"
       id="path20"
       d="" />
    <path
       style="fill:#000000"
       id="path18"
       d="" />
    <path
       style="fill:#000000"
       id="path16"
       d="" />
    <path
       style="fill:#8e8e8e;stroke:none"
       d="m 9.7253553,98.765397 c 6.5920997,3.810013 9.8999997,9.856013 17.9999997,7.000013 -1.395,-10.351313 -5.8617,-20.619813 -10.3202,-30.000013 -2.0324,-4.275896 -6.6442,-9.120296 -6.733,-13.999996 -0.1039,-5.7052 4.5597,-12.399 7.4892,-17 15.3377,-24.0894 36.5124,-24.7955 61.564,-19 l 2,-6 C 32.262255,-6.194589 -8.5202447,53.263201 1.9614653,97.765397 17.844355,165.19941 114.87435,182.77541 172.72535,172.34141 c 13.383,-2.414 24.579,-7.405 37,-12.576 l -3,-6 -29,10.525 -43,3.475 c 23.807,-33.337 40.504,-68.503913 70,-98.000009 10.936,-10.9364 22.311,-22.5907 37,-28.3843 20.874,-8.2331 42.361,3.3954 63,-2.6589 14.379,-4.2178 28.214,-15.0853 41,-22.757 4.189,-2.5134 11.847,-9.33386 17,-8.23299 7.499,1.60204 11.833,12.67029 14,19.03319 -10.695,-2.2807 -16.759,8.252 -19.641,17 -5.271,15.9989 -7.578,53.400396 11.656,61.910009 14.873,6.581 22.516,-12.856813 24.522,-23.910013 3.422,-18.849996 -0.821,-33.641996 -7.472,-50.999996 -3.135,-8.1809 -5.519,-17.1946 -11.394,-23.95987 -7.311,-8.42059 -14.876,-7.702163 -23.671,-2.43982 -14.898,8.91379 -33.729,25.36869 -51,28.25389 -23.163,3.8694 -44.363,-6.8268 -67,4.9298 -34.305,17.8164 -59.446,54.685496 -80,86.216009 -6.573,10.083 -12.594,20.561 -18.579,31 -2.247,3.921 -4.607,10.624 -9.464,11.82 -9.213,2.27 -23.92,-2.755 -32.956995,-4.95 -33.4299,-8.119 -72.1211,-26.751 -81.9999997,-62.870013 M 373.75335,37.686701 c 5.318,-0.6873 7.635,8.3485 8.594,12.0787 2.902,11.2878 2.787,23.7609 -0.368,34.999996 -0.995,3.5449 -2.825,10.5024 -7.282,11.0787 -5.301,0.6855 -7.504,-8.3892 -8.544,-12.0787 -3.159,-11.208296 -3.006,-23.775696 0.062,-34.999996 0.967,-3.5368 3.17,-10.5142 7.538,-11.0787 M 7.7253553,72.765401 17.725355,94.765397 C 7.8542153,91.178297 3.3432553,83.208497 7.7253553,72.765401 M 279.72535,86.297797 c -9.519,2.2677 -15.723,11.1989 -19.741,19.467613 -9.634,19.83 -9.496,46.752 -1.244,67 5.057,12.41 15.961,25.735 30.985,22.481 32.612,-7.062 31.949,-61.734 22.934,-85.481 -5.178,-13.640813 -16.765,-27.319713 -32.934,-23.467613 m -42,68.467613 c 4.482,-6.289 5.196,-16.482 6.271,-24 1.714,-11.991 6.156,-37.937213 -9.275,-43.145113 -12.945,-4.3689 -30.738,11.3532 -39.996,18.569113 -4.292,3.346 -24.302,15.896 -20.623,22.254 1.819,3.144 5.954,1.47 8.623,0.746 8.526,-2.315 17.185,-4.413 26,-5.254 19.698,-1.881 25.219,14.487 29,30.83 m 0,-25 c -4.519,-2.866 -6.969,-8.018 -12,-10.427 -11.405,-5.463 -24.283,-0.505 -36,0.427 7.969,-9.12 20.183,-17.326 31,-22.729913 4.152,-2.0743 10.487,-5.1463 14.347,-0.9522 7.355,7.992113 2.732,24.119113 2.653,33.682113 m 45,-31.562513 c 10.25,-2.6624 16.553,9.796513 19.301,17.562513 5.695,16.091 5.34,36.141 -0.917,52 -2.342,5.936 -6.626,13.903 -13.384,15.551 -10.368,2.528 -16.408,-10.883 -18.996,-18.551 -5.392,-15.974 -5.67,-36.408 1.308,-52 2.533,-5.657 6.146,-12.863013 12.688,-14.562513 z"
       id="path22" />
  </g>
</svg>
